<svg width="257" height="201" viewBox="0 0 257 201" fill="none" xmlns="http://www.w3.org/2000/svg">
<path d="M183.551 159.994L178.374 171.895C177.397 174.144 175.785 176.059 173.734 177.404C171.684 178.749 169.285 179.465 166.833 179.465H145.16C142.285 179.463 139.528 178.321 137.494 176.289H97.0167C95.4533 176.289 93.9122 175.917 92.5206 175.205C91.1289 174.492 89.9265 173.459 89.0122 172.191L83.6654 164.78L183.551 159.994Z" fill="#2E353A"/>
<path d="M150.569 112.815C150.569 118.521 127.826 159.052 125.549 160.661C123.273 162.271 93.5847 160.471 93.5847 160.471L95.7976 168.877H177.324L211.205 103.116L188.801 70.7914L147.985 71.9243C147.985 71.9243 150.569 107.118 150.569 112.815Z" fill="#006940"/>
<path opacity="0.2" d="M150.569 112.815C150.569 118.521 127.826 159.052 125.549 160.661C123.273 162.271 93.5847 160.471 93.5847 160.471L95.7976 168.877H177.324L211.205 103.116L188.801 70.7914L147.985 71.9243C147.985 71.9243 150.569 107.118 150.569 112.815Z" fill="black"/>
<path d="M216.794 200.195C198.427 200.195 183.537 182.234 183.537 160.078C183.537 137.922 198.427 119.96 216.794 119.96C235.161 119.96 250.05 137.922 250.05 160.078C250.05 182.234 235.161 200.195 216.794 200.195Z" fill="#2E353A"/>
<path d="M222.367 185.383C210.783 185.383 201.392 174.053 201.392 160.078C201.392 146.102 210.783 134.773 222.367 134.773C233.951 134.773 243.342 146.102 243.342 160.078C243.342 174.053 233.951 185.383 222.367 185.383Z" fill="white"/>
<path d="M227.182 170.275C222.358 170.275 218.447 165.558 218.447 159.74C218.447 153.922 222.358 149.205 227.182 149.205C232.006 149.205 235.917 153.922 235.917 159.74C235.917 165.558 232.006 170.275 227.182 170.275Z" fill="#006940"/>
<path opacity="0.4" d="M227.182 170.275C222.358 170.275 218.447 165.558 218.447 159.74C218.447 153.922 222.358 149.205 227.182 149.205C232.006 149.205 235.917 153.922 235.917 159.74C235.917 165.558 232.006 170.275 227.182 170.275Z" fill="black"/>
<path d="M31.54 99.474C31.54 99.474 61.5566 122.492 73.0021 169.936H121.071L75.5432 95.8212L51.5299 85.8368L31.54 99.474Z" fill="#006940"/>
<path opacity="0.4" d="M28.4378 97.1341C28.4378 97.1341 56.5062 118.596 69.9105 158.978C70.9453 162.152 72.9539 164.919 75.651 166.886C78.3481 168.853 81.5964 169.92 84.9347 169.936H121.071L75.5432 95.8212L51.5299 85.8368L28.4378 97.1341Z" fill="black"/>
<path d="M31.3282 98.9965H49.8675C53.3864 98.9533 56.8377 99.9636 59.7778 101.898C70.7786 109.224 96.8353 129.659 99.5458 162.037C99.7151 164.174 100.679 166.17 102.246 167.632C103.814 169.094 105.873 169.915 108.016 169.935H188.6C202.141 169.937 215.441 166.345 227.14 159.527L250.179 146.102C252.661 144.652 254.627 142.461 255.801 139.836C256.974 137.212 257.297 134.286 256.723 131.469C253.98 118.245 246.251 95.5554 224.133 86.6828C223.784 86.524 224.313 86.3863 223.254 86.2593V72.5268H165.487C165.487 72.5268 177.07 100.151 177.07 111.543C177.07 122.29 165.678 163.582 150.939 167.818H130.822C128.149 167.753 125.539 166.984 123.257 165.59C120.974 164.196 119.099 162.226 117.82 159.877C108.016 142.375 86.2368 96.9954 93.0237 54.1039C93.8177 49.0959 89.9638 43.9396 84.8816 43.9396H58.9413C58.9413 43.9396 35.648 70.9598 28.0883 93.7978C27.3154 96.0213 28.9777 98.9965 31.3282 98.9965Z" fill="#FECF3E"/>
<path d="M72.9066 35.3416H80.3181C82.2631 35.341 84.1496 34.6761 85.665 33.4569L100.901 21.1221C101.5 20.6349 102.247 20.366 103.019 20.3597H132.305C132.866 20.3597 133.405 20.1367 133.802 19.7395C134.199 19.3424 134.422 18.8038 134.422 18.2422C134.422 17.6806 134.199 17.1419 133.802 16.7448C133.405 16.3477 132.866 16.1246 132.305 16.1246H103.04C101.296 16.1255 99.6057 16.7275 98.254 17.8293L83.0074 30.1747C82.2496 30.7877 81.3034 31.1206 80.3287 31.117H72.9172C71.89 31.1131 70.8982 30.7415 70.1213 30.0695C69.3444 29.3975 68.8338 28.4695 68.6821 27.4536L68.015 22.6891C67.747 20.875 66.8383 19.2169 65.4536 18.0147C64.0689 16.8126 62.2996 16.1459 60.4659 16.1352H54.9072C54.3456 16.1352 53.807 16.3583 53.4099 16.7554C53.0128 17.1525 52.7897 17.6912 52.7897 18.2528C52.7897 18.8144 53.0128 19.353 53.4099 19.7501C53.807 20.1472 54.3456 20.3703 54.9072 20.3703H60.4871C61.3016 20.3764 62.0872 20.6731 62.7025 21.2068C63.3178 21.7406 63.7224 22.4765 63.8434 23.282L64.5104 28.0465C64.8087 30.0646 65.8191 31.9093 67.359 33.2473C68.8989 34.5852 70.8667 35.3281 72.9066 35.3416Z" fill="#2E353A"/>
<path d="M85.9819 26.3631C85.9819 26.3631 85.8866 31.3606 90.577 31.043L92.1017 36.464C92.3192 37.2275 92.3741 38.0281 92.2628 38.8142C92.1516 39.6002 91.8767 40.3542 91.4558 41.0273L88.1418 46.3213H57.437L55.023 41.7685C54.6363 41.0441 54.4905 40.2153 54.6067 39.4024C54.7228 38.5895 55.0948 37.8347 55.6688 37.2475L64.8167 27.8984C65.2956 27.4057 65.8684 27.014 66.5013 26.7467C67.1342 26.4794 67.8143 26.3417 68.5013 26.342L85.9819 26.3631Z" fill="#006940"/>
<path opacity="0.4" d="M85.9819 26.3631C85.9819 26.3631 85.8866 31.3606 90.577 31.043L92.1017 36.464C92.3192 37.2275 92.3741 38.0281 92.2628 38.8142C92.1516 39.6002 91.8767 40.3542 91.4558 41.0273L88.1418 46.3213H57.437L55.023 41.7685C54.6363 41.0441 54.4905 40.2153 54.6067 39.4024C54.7228 38.5895 55.0948 37.8347 55.6688 37.2475L64.8167 27.8984C65.2956 27.4057 65.8684 27.014 66.5013 26.7467C67.1342 26.4794 67.8143 26.3417 68.5013 26.342L85.9819 26.3631Z" fill="black"/>
<path d="M33.2564 200.195C14.8894 200.195 -1.52588e-05 182.234 -1.52588e-05 160.078C-1.52588e-05 137.922 14.8894 119.96 33.2564 119.96C51.6235 119.96 66.5129 137.922 66.5129 160.078C66.5129 182.234 51.6235 200.195 33.2564 200.195Z" fill="#2E353A"/>
<path d="M38.812 185.383C27.2281 185.383 17.8375 174.053 17.8375 160.078C17.8375 146.102 27.2281 134.773 38.812 134.773C50.396 134.773 59.7866 146.102 59.7866 160.078C59.7866 174.053 50.396 185.383 38.812 185.383Z" fill="white"/>
<path d="M0.52726 134.201C4.03185 128.24 13.4021 115.355 30.2474 111.585C34.5638 110.573 39.0403 110.443 43.4081 111.204L43.4822 111.024L43.4081 110.865H43.5457L46.4362 104.29H49.729C52.403 104.29 55.0046 105.159 57.1406 106.768L62.9215 111.109L60.2004 120.543C60.9876 121.387 61.723 122.278 62.4027 123.211C67.2802 129.272 70.6056 136.432 72.0906 144.069C72.1395 144.388 72.1188 144.713 72.03 145.023C71.9412 145.333 71.7864 145.62 71.5762 145.864C71.3659 146.109 71.1053 146.305 70.8121 146.439C70.5189 146.573 70.2002 146.642 69.8778 146.642H68.1413C67.6858 146.649 67.2389 146.518 66.8604 146.264C66.4819 146.01 66.19 145.647 66.0238 145.223C64.4725 141.124 62.0149 137.428 58.8346 134.413L49.1891 159.527L41.4282 156.266L44.1492 124.968C44.1492 124.968 26.2981 119.95 14.6091 134.392C13.929 135.238 13.0684 135.921 12.0901 136.392C11.1119 136.863 10.0408 137.109 8.95519 137.113H2.16837C1.8306 137.107 1.50026 137.013 1.21007 136.84C0.919884 136.667 0.679947 136.421 0.514076 136.127C0.348206 135.832 0.262161 135.5 0.264473 135.162C0.266785 134.824 0.357384 134.493 0.52726 134.201Z" fill="#006940"/>
<path opacity="0.2" d="M0.52726 134.201C4.03185 128.24 13.4021 115.355 30.2474 111.585C34.5638 110.573 39.0403 110.443 43.4081 111.204L43.4822 111.024L43.4081 110.865H43.5457L46.4362 104.29H49.729C52.403 104.29 55.0046 105.159 57.1406 106.768L62.9215 111.109L60.2004 120.543C60.9876 121.387 61.723 122.278 62.4027 123.211C67.2802 129.272 70.6056 136.432 72.0906 144.069C72.1395 144.388 72.1188 144.713 72.03 145.023C71.9412 145.333 71.7864 145.62 71.5762 145.864C71.3659 146.109 71.1053 146.305 70.8121 146.439C70.5189 146.573 70.2002 146.642 69.8778 146.642H68.1413C67.6858 146.649 67.2389 146.518 66.8604 146.264C66.4819 146.01 66.19 145.647 66.0238 145.223C64.4725 141.124 62.0149 137.428 58.8346 134.413L49.1891 159.527L41.4282 156.266L44.1492 124.968C44.1492 124.968 26.2981 119.95 14.6091 134.392C13.929 135.238 13.0684 135.921 12.0901 136.392C11.1119 136.863 10.0408 137.109 8.95519 137.113H2.16837C1.8306 137.107 1.50026 137.013 1.21007 136.84C0.919884 136.667 0.679947 136.421 0.514076 136.127C0.348206 135.832 0.262161 135.5 0.264473 135.162C0.266785 134.824 0.357384 134.493 0.52726 134.201Z" fill="black"/>
<path d="M43.6322 170.275C38.808 170.275 34.8972 165.558 34.8972 159.74C34.8972 153.922 38.808 149.205 43.6322 149.205C48.4564 149.205 52.3672 153.922 52.3672 159.74C52.3672 165.558 48.4564 170.275 43.6322 170.275Z" fill="#006940"/>
<path opacity="0.4" d="M43.6322 170.275C38.808 170.275 34.8972 165.558 34.8972 159.74C34.8972 153.922 38.808 149.205 43.6322 149.205C48.4564 149.205 52.3672 153.922 52.3672 159.74C52.3672 165.558 48.4564 170.275 43.6322 170.275Z" fill="black"/>
<path d="M75.0864 47.498C75.0864 47.498 69.5913 82.0992 51.4437 82.3321C34.429 82.5651 32.8408 50.0815 49.072 45.0946C62.1798 41.0606 75.0864 47.498 75.0864 47.498Z" fill="#006940"/>
<path opacity="0.2" d="M75.0864 47.498C75.0864 47.498 69.5913 82.0992 51.4437 82.3321C34.429 82.5651 32.8408 50.0815 49.072 45.0946C62.1798 41.0606 75.0864 47.498 75.0864 47.498Z" fill="black"/>
<path d="M38.8881 63.4113C38.4858 72.1886 43.7797 79.2931 50.7148 79.2931C57.6498 79.2931 63.5896 72.1674 63.9919 63.4113C64.3943 54.6551 59.1004 47.5295 52.1759 47.5295C45.2514 47.5295 39.2904 54.6233 38.8881 63.4113Z" fill="white"/>
<path d="M56.1581 40.7215H71.9128L70.6635 38.6887H56.1581V40.7215Z" fill="white"/>
<path d="M142.785 71.0663V75.0474C142.785 78.6579 145.739 80.9978 149.36 80.9978H220.955C224.587 80.9978 227.488 78.6579 227.488 75.0474V71.0663C227.488 67.4559 224.587 65.116 220.955 65.116H149.36C145.739 65.116 142.785 67.4559 142.785 71.0663Z" fill="#2E353A"/>
<path opacity="0.2" d="M166.078 71.0664V75.0474C166.039 75.8521 166.17 76.656 166.465 77.4059C166.759 78.1558 167.21 78.8345 167.787 79.3972C168.363 79.9598 169.053 80.3935 169.81 80.6694C170.567 80.9453 171.374 81.0573 172.177 80.9978H220.955C224.587 80.9978 227.488 78.6579 227.488 75.0474V71.0664C227.488 67.4559 224.587 65.116 220.955 65.116H172.177C171.374 65.0565 170.567 65.1684 169.81 65.4444C169.053 65.7203 168.363 66.154 167.787 66.7166C167.21 67.2792 166.759 67.958 166.465 68.7079C166.17 69.4578 166.039 70.2617 166.078 71.0664Z" fill="white"/>
<path opacity="0.2" d="M175.09 144.398V169.936H188.6C202.141 169.937 215.441 166.346 227.14 159.528L250.179 146.103C252.661 144.652 254.627 142.461 255.801 139.837C256.974 137.213 257.297 134.287 256.723 131.47C253.98 118.246 246.135 95.5561 223.974 86.6835L222.916 86.7364H213.969C208.805 86.7357 203.749 88.2076 199.392 90.9794C195.036 93.7511 191.56 97.7079 189.373 102.385L179.844 122.82C176.701 129.579 175.079 136.944 175.09 144.398Z" fill="black"/>
<path d="M115.299 1.81276L116.981 3.09921L105.512 18.0943L103.83 16.8078L115.299 1.81276Z" fill="#2E353A"/>
<path d="M122.194 6.3832e-09H116.794C116.233 -3.74117e-05 115.684 0.164435 115.215 0.473058C114.747 0.781681 114.379 1.22091 114.157 1.73641L113.438 3.41988C113.252 3.85586 113.178 4.33093 113.221 4.8027C113.264 5.27447 113.423 5.72825 113.684 6.12353C113.945 6.51882 114.3 6.84331 114.717 7.06805C115.134 7.29279 115.6 7.41079 116.074 7.41151H121.95C122.64 7.41326 123.307 7.16559 123.828 6.71416C124.35 6.26273 124.691 5.63798 124.788 4.95511L125.031 3.27165C125.089 2.86519 125.058 2.45113 124.942 2.05739C124.826 1.66366 124.627 1.29944 124.358 0.989317C124.089 0.679197 123.757 0.430389 123.383 0.259721C123.01 0.0890521 122.604 0.000488591 122.194 6.3832e-09Z" fill="#006940"/>
<path d="M61.4252 4.18724L64.248 17.594L62.1759 18.0303L59.3531 4.62354L61.4252 4.18724Z" fill="#2E353A"/>
<path d="M54.0382 0.000109958H59.8509C60.4206 -0.000312066 60.9712 0.205217 61.4012 0.578811C61.8312 0.952404 62.1117 1.46887 62.1909 2.03298L62.5826 4.71171C62.63 5.05043 62.6035 5.3954 62.5051 5.72295C62.4066 6.05049 62.2385 6.35286 62.0122 6.60932C61.7859 6.86578 61.5068 7.07026 61.1941 7.20875C60.8813 7.34723 60.5423 7.41644 60.2003 7.41161H54.3982C53.8285 7.41204 53.278 7.20651 52.8479 6.83291C52.4179 6.45932 52.1375 5.94286 52.0583 5.37875L51.6665 2.70002C51.6193 2.36218 51.6455 2.01813 51.7434 1.69135C51.8412 1.36456 52.0084 1.06274 52.2335 0.806462C52.4587 0.55018 52.7364 0.345479 53.0478 0.206323C53.3593 0.067166 53.6971 -0.0031747 54.0382 0.000109958Z" fill="#006940"/>
</svg>
