<svg width="257" height="148" viewBox="0 0 257 148" fill="none" xmlns="http://www.w3.org/2000/svg">
<path d="M43.4397 52.8039C43.4397 54.3193 58.965 56.8879 59.2074 56.8879C59.4499 56.8879 62.4731 56.3651 62.4731 56.3651L67.9967 56.8879C68.1653 56.7181 68.3036 56.5208 68.4059 56.3045C68.6271 55.8436 68.7582 55.3447 68.7923 54.8346C68.7923 54.683 68.7923 54.5239 68.7923 54.3496C68.7785 53.1386 68.6104 51.9343 68.2922 50.7657C67.1578 50.8677 66.0144 50.7405 64.9301 50.3917C63.8458 50.0428 62.8427 49.4795 61.9806 48.7351C61.1774 46.7499 60.0863 44.5905 58.8892 43.6585C58.8892 43.6585 47.9783 44.4162 45.6976 45.7346C43.4548 47.0606 43.4397 52.8039 43.4397 52.8039Z" fill="#006940"/>
<g opacity="0.2">
<path d="M43.4397 52.8039C43.4397 54.3193 58.965 56.8879 59.2074 56.8879C59.4499 56.8879 62.4731 56.3651 62.4731 56.3651L67.9967 56.8879C68.1653 56.7181 68.3036 56.5208 68.4059 56.3045C68.6271 55.8436 68.7582 55.3447 68.7923 54.8346C68.7923 54.683 68.7923 54.5239 68.7923 54.3496C68.7785 53.1386 68.6104 51.9343 68.2922 50.7657C67.1578 50.8677 66.0144 50.7405 64.9301 50.3917C63.8458 50.0428 62.8427 49.4795 61.9806 48.7351C61.1774 46.7499 60.0863 44.5905 58.8892 43.6585C58.8892 43.6585 47.9783 44.4162 45.6976 45.7346C43.4548 47.0606 43.4397 52.8039 43.4397 52.8039Z" fill="black"/>
</g>
<path d="M49.2578 53.0695C49.2578 53.0695 58.0017 34.4604 92.0981 6.94074C92.0981 6.94074 165.398 -3.05332 213.436 7.05439C213.436 7.05439 232.765 33.6269 234.871 46.9245C236.978 60.2221 49.2578 53.0695 49.2578 53.0695Z" fill="#263238"/>
<g opacity="0.7">
<path d="M186.502 6.22817C187.078 10.6456 188.275 22.2687 188.548 44.6511C161.377 47.4091 140.525 50.7581 140.525 50.7581C146.844 26.6103 163.847 8.0618 163.847 8.0618C171.35 6.95116 178.918 6.33861 186.502 6.22817V6.22817Z" fill="white"/>
<path d="M231.827 41.462C227.546 41.6363 223.249 41.856 218.991 42.1288L217.991 42.1894L216.112 42.3182L215.218 42.3713C207.239 42.9092 199.39 43.5836 191.957 44.311C191.669 35.0216 190.971 17.7915 189.433 6.21384C197.157 6.15558 204.871 6.76145 212.49 8.02474L212.74 8.0702C212.742 8.08528 212.742 8.1006 212.74 8.11568C212.952 8.37329 213.164 8.64607 213.377 8.87338L213.619 9.19161C224.628 23.3151 231.827 41.462 231.827 41.462Z" fill="white"/>
<path d="M53.6912 47.5225C53.6912 47.5225 81.2638 42.2186 134.091 47.5225C134.091 47.5225 144.736 23.6019 158.784 8.06912C158.784 8.06912 124.619 2.90161 91.8943 8.06912C77.6506 19.6698 64.8273 32.9127 53.6912 47.5225V47.5225Z" fill="white"/>
</g>
<path opacity="0.2" d="M148.837 5.77401C148.837 5.77401 119.287 4.19042 102.981 5.66793C86.6753 7.14544 83.8416 13.8435 83.8416 13.8435C88.1909 12.1164 92.6803 10.7653 97.2604 9.80497C97.2604 11.2446 97.321 13.404 97.912 14.2451C98.3591 14.874 105.216 14.0254 106.618 13.2449C107.565 12.7145 108.77 10.0929 109.452 8.44111C123.924 7.30456 148.837 5.77401 148.837 5.77401ZM105.951 12.169C105.398 12.3963 100.268 13.3737 98.9046 13.1388C98.5106 13.0707 98.4424 11.1764 98.4576 9.58523C99.2683 9.44127 100.087 9.31247 100.897 9.21397C102.413 9.0397 104.86 8.81239 107.936 8.56235C107.254 10.1687 106.436 11.9644 105.951 12.169Z" fill="black"/>
<path opacity="0.2" d="M222.606 34.7251C221.63 32.8795 219.984 31.4778 218.007 30.8078C218.007 30.8078 219.355 22.1398 218.007 20.7986C216.658 19.4575 204.913 19.8212 202.277 20.7986C200.375 21.4957 198.996 26.1934 198.375 28.762H160.914C161.225 26.1101 161.573 21.723 160.649 20.7986C159.3 19.4499 147.548 19.8212 144.911 20.7986C142.274 21.7761 140.638 30.4744 140.638 30.4744C138.519 30.8828 136.53 31.7979 134.841 33.1415C131.811 35.4146 129.151 57.7516 129.151 57.7516H221.742C221.742 57.7516 224.038 37.6953 222.606 34.7251Z" fill="black"/>
<path d="M98.4639 56.3651C98.4639 56.3651 101.161 34.0509 104.147 31.755C105.837 30.4078 107.828 29.4901 109.951 29.0804C109.951 29.0804 111.587 20.4198 114.224 19.4424C116.861 18.465 128.62 18.1013 129.954 19.4424C131.287 20.7835 129.954 29.4516 129.954 29.4516C131.93 30.1205 133.574 31.5229 134.545 33.3689C135.985 36.3467 133.689 56.3651 133.689 56.3651H98.4639Z" fill="#263238"/>
<path opacity="0.4" d="M98.4639 56.3651C98.4639 56.3651 101.161 34.0509 104.147 31.755C105.837 30.4078 107.828 29.4901 109.951 29.0804C109.951 29.0804 111.587 20.4198 114.224 19.4424C116.861 18.465 128.62 18.1013 129.954 19.4424C131.287 20.7835 129.954 29.4516 129.954 29.4516C131.93 30.1205 133.574 31.5229 134.545 33.3689C135.985 36.3467 133.689 56.3651 133.689 56.3651H98.4639Z" fill="white"/>
<path d="M147.118 56.3651C147.118 56.3651 149.815 34.0509 152.8 31.755C154.491 30.4078 156.482 29.4901 158.604 29.0804C158.604 29.0804 160.241 20.4198 162.878 19.4424C165.515 18.465 177.274 18.1013 178.608 19.4424C179.941 20.7835 178.608 29.4516 178.608 29.4516C180.584 30.1205 182.227 31.5229 183.199 33.3689C184.639 36.3467 182.343 56.3651 182.343 56.3651H147.118Z" fill="#263238"/>
<path opacity="0.4" d="M147.118 56.3651C147.118 56.3651 149.815 34.0509 152.8 31.755C154.491 30.4078 156.482 29.4901 158.604 29.0804C158.604 29.0804 160.241 20.4198 162.878 19.4424C165.515 18.465 177.274 18.1013 178.608 19.4424C179.941 20.7835 178.608 29.4516 178.608 29.4516C180.584 30.1205 182.227 31.5229 183.199 33.3689C184.639 36.3467 182.343 56.3651 182.343 56.3651H147.118Z" fill="white"/>
<path d="M133.288 47.6513L129.379 45.7494L129.295 51.2503C129.295 51.2503 132.978 52.1217 133.644 50.2047L133.288 47.6513Z" fill="#FFB573"/>
<path d="M125.893 46.492L126.037 51.0457L129.295 51.2503L129.378 45.7494L125.893 46.492Z" fill="#FFB573"/>
<path d="M140.418 46.9242L138.274 47.3258L138.433 53.0312L140.471 53.6147L140.418 46.9242Z" fill="#263238"/>
<path d="M133.85 60.2068C132.528 60.2013 131.218 59.9654 129.978 59.5098C127.057 58.4014 124.654 56.246 123.235 53.4631C121.816 50.6801 121.484 47.4688 122.302 44.4543C122.693 43.004 123.384 41.6519 124.33 40.4852C125.276 39.3186 126.456 38.3635 127.794 37.6815C129.133 36.9995 130.599 36.6059 132.099 36.5261C133.599 36.4463 135.099 36.6821 136.502 37.2182C139.422 38.3266 141.826 40.482 143.244 43.2649C144.663 46.0479 144.996 49.2592 144.177 52.2737C143.781 53.722 143.088 55.072 142.143 56.2382C141.197 57.4043 140.019 58.361 138.684 59.0475C137.187 59.8114 135.53 60.2088 133.85 60.2068V60.2068ZM132.637 38.7033C131.297 38.6987 129.975 39.013 128.781 39.6202C127.713 40.1727 126.772 40.9409 126.017 41.8761C125.262 42.8112 124.709 43.893 124.394 45.0528C123.728 47.5406 124.009 50.1867 125.182 52.4793C126.355 54.7719 128.336 56.548 130.743 57.464C131.864 57.8997 133.065 58.0941 134.267 58.0344C135.468 57.9746 136.644 57.6621 137.716 57.1173C138.789 56.5724 139.734 55.8074 140.491 54.8723C141.248 53.9371 141.799 52.8529 142.109 51.6903C142.779 49.2063 142.504 46.5618 141.337 44.2689C140.17 41.976 138.193 40.198 135.789 39.2792C134.781 38.9009 133.714 38.7059 132.637 38.7033V38.7033Z" fill="#263238"/>
<path d="M146.139 57.4258C143.805 51.6749 135.758 43.8327 133.258 41.749C130.757 39.6654 124.112 38.8774 112.535 39.2183C108.701 39.3883 104.955 40.4245 101.578 42.2491C92.6527 42.3173 77.9684 42.5067 71.9675 43.0068C67.5349 43.3932 55.8967 44.6283 54.8889 48.8865C53.8812 53.1448 60.3444 63.3283 60.9505 63.3283H94.0317C94.0573 63.8716 94.1645 64.4081 94.3499 64.9195C94.8273 65.3135 131.765 68.0639 131.765 68.0639C131.765 68.0639 148.472 63.1843 146.139 57.4258Z" fill="#263238"/>
<path opacity="0.3" d="M146.139 57.4258C143.805 51.6749 135.758 43.8327 133.258 41.749C130.757 39.6654 124.112 38.8774 112.535 39.2183C108.701 39.3883 104.955 40.4245 101.578 42.2491C92.6527 42.3173 77.9684 42.5067 71.9675 43.0068C67.5349 43.3932 55.8967 44.6283 54.8889 48.8865C53.8812 53.1448 60.3444 63.3283 60.9505 63.3283H94.0317C94.0573 63.8716 94.1645 64.4081 94.3499 64.9195C94.8273 65.3135 131.765 68.0639 131.765 68.0639C131.765 68.0639 148.472 63.1843 146.139 57.4258Z" fill="white"/>
<g opacity="0.3">
<path d="M231.826 41.4549C227.545 41.6292 223.249 41.8565 218.991 42.1217L217.991 42.1899L216.112 42.3111L215.218 42.3718C209.307 42.7733 203.473 43.2431 197.79 43.7583C203.45 29.5288 207.33 17.0419 207.641 16.0644C204.276 24.2627 196.563 32.3171 196.563 32.3171C200.496 24.203 203.77 15.7856 206.352 7.14633C209.656 7.52518 211.785 7.90402 212.475 8.02525L212.725 8.07071C212.727 8.08579 212.727 8.10111 212.725 8.11618C212.937 8.3738 213.149 8.62637 213.361 8.87388L213.604 9.19211C224.628 23.3156 231.826 41.4549 231.826 41.4549Z" fill="white"/>
<path d="M88.1582 29.0657C99.357 22.5191 109.95 17.0637 110.889 16.5636C98.9327 23.2844 85.2486 36.0592 76.035 45.4319C61.2371 46.0608 53.6677 47.5232 53.6677 47.5232C64.8076 32.9141 77.6333 19.6714 91.8785 8.0698C102.72 6.44996 113.673 5.68989 124.634 5.7967C105.441 14.1844 88.7947 28.5201 88.1582 29.0657Z" fill="white"/>
</g>
<path d="M157.739 91.5979H147.639C136.41 91.5979 127.31 104.176 127.31 119.693C127.31 135.211 136.402 147.789 147.639 147.789H157.739C168.968 147.789 178.068 135.211 178.068 119.693C178.068 104.176 168.968 91.5979 157.739 91.5979Z" fill="#263238"/>
<path opacity="0.1" d="M160.921 145.796C170.303 145.796 177.908 134.11 177.908 119.693C177.908 105.277 170.303 93.5906 160.921 93.5906C151.539 93.5906 143.933 105.277 143.933 119.693C143.933 134.11 151.539 145.796 160.921 145.796Z" fill="white"/>
<path opacity="0.6" d="M162.39 105.585C157.321 105.585 153.215 111.905 153.215 119.694C153.215 127.483 157.321 133.802 162.39 133.802C167.459 133.802 171.574 127.483 171.574 119.694C171.574 111.905 167.459 105.585 162.39 105.585Z" fill="#263238"/>
<path d="M41.4543 91.5979H31.3542C20.1175 91.5979 11.0251 104.176 11.0251 119.693C11.0251 135.211 20.1175 147.789 31.3542 147.789H41.4543C52.6834 147.789 61.791 135.211 61.791 119.693C61.791 104.176 52.6986 91.5979 41.4543 91.5979Z" fill="#263238"/>
<path opacity="0.1" d="M44.6375 145.796C54.0195 145.796 61.6251 134.11 61.6251 119.693C61.6251 105.277 54.0195 93.5906 44.6375 93.5906C35.2555 93.5906 27.6499 105.277 27.6499 119.693C27.6499 134.11 35.2555 145.796 44.6375 145.796Z" fill="white"/>
<path opacity="0.6" d="M46.1149 133.802C51.1826 133.802 55.2907 127.485 55.2907 119.694C55.2907 111.902 51.1826 105.585 46.1149 105.585C41.0473 105.585 36.9392 111.902 36.9392 119.694C36.9392 127.485 41.0473 133.802 46.1149 133.802Z" fill="#263238"/>
<path d="M249.534 89.2339L249.678 118.148C249.686 119.247 249.476 120.338 249.061 121.356C248.646 122.374 248.033 123.3 247.258 124.08C246.483 124.861 245.562 125.48 244.547 125.903C243.531 126.325 242.443 126.543 241.343 126.543H167.634C164.568 129.66 160.912 132.136 156.879 133.827C152.847 135.519 148.518 136.391 144.145 136.393H96.9711L91.6066 128.346H80.87L79.4455 129.695C75.4893 133.422 70.2569 135.493 64.8219 135.484V135.484C61.9707 135.478 59.1497 134.899 56.5268 133.781C53.9039 132.663 51.5327 131.028 49.5543 128.975L48.9102 128.301H24.376C22.4133 128.302 20.5134 127.61 19.0109 126.347C17.5084 125.084 16.4997 123.332 16.1625 121.398L9.6084 83.7406L249.534 89.2339Z" fill="#263238"/>
<path d="M255.512 83.7636L251.58 80.8692C248.004 58.2671 242.882 48.2882 242.882 48.2882L234.001 40.7112C230.584 28.3834 218.211 7.69065 211.71 5.30389H211.672C210.619 5.03112 186.857 0 149.7 0C103.192 0 89.8414 7.79673 89.8414 7.79673C71.3687 21.3899 50.2289 47.7426 50.2289 47.7426C39.1696 51.8257 28.9609 57.919 20.118 65.7153C19.1254 66.6018 18.1404 67.5337 17.1781 68.496C16.3522 69.3143 15.5339 70.1629 14.7459 71.0419C14.1397 71.7087 13.5411 72.3906 12.9577 73.0877C10.8949 75.5935 9.11613 78.3202 7.65381 81.2178C6.6856 83.1166 5.81563 85.0639 5.04732 87.0521C4.7594 87.8098 4.50936 88.4993 4.28962 89.1736C4.14566 89.5903 0.690552 93.591 0.690552 93.591C-1.31735 94.6821 1.34217 110.889 4.9564 119.262C5.20013 119.818 5.60109 120.291 6.10995 120.622C6.61881 120.953 7.21337 121.128 7.8205 121.126H104.374C104.541 101.486 116.179 85.6427 130.522 85.6427C144.866 85.6427 156.489 101.486 156.663 121.126H200.973C201.14 101.486 212.778 85.6427 227.121 85.6427C229.978 85.6521 232.798 86.2802 235.388 87.4839C245.117 91.9316 252.3 104.017 253.171 118.55C253.171 118.784 253.171 119.035 253.217 119.269C253.473 119.002 253.699 118.707 253.891 118.39C254.224 118.224 254.518 117.989 254.756 117.702C254.993 117.415 255.168 117.082 255.27 116.724C258.99 106.631 255.512 83.7636 255.512 83.7636ZM53.684 47.5153C64.8278 32.9118 77.6531 19.672 91.8948 8.06949C124.62 2.89441 158.784 8.06949 158.784 8.06949C144.737 23.6023 134.091 47.5153 134.091 47.5153C81.2643 42.1887 53.684 47.5153 53.684 47.5153ZM140.524 50.7658C146.843 26.618 163.846 8.06949 163.846 8.06949C171.349 6.95885 178.917 6.34631 186.501 6.23586C187.077 10.6532 188.274 22.2764 188.547 44.6588C161.376 47.4168 140.524 50.7658 140.524 50.7658V50.7658ZM218.991 42.1281L217.991 42.1887L216.112 42.3175L215.218 42.3705C207.239 42.9085 199.39 43.5829 191.957 44.3103C191.669 35.0209 190.972 17.7908 189.433 6.21313C197.157 6.15487 204.871 6.76073 212.49 8.02403L212.74 8.06949C212.742 8.08457 212.742 8.09989 212.74 8.11496C212.952 8.37258 213.165 8.64535 213.377 8.87266L213.619 9.19089C224.598 23.2765 231.804 41.4234 231.804 41.4234C227.546 41.6356 223.25 41.8402 218.991 42.1281V42.1281Z" fill="#FECF3E"/>
<path d="M130.908 91.5979H120.801C109.572 91.5979 100.472 104.176 100.472 119.693C100.472 135.211 109.564 147.789 120.801 147.789H130.908C142.13 147.789 151.238 135.211 151.238 119.693C151.238 104.176 142.107 91.5979 130.908 91.5979Z" fill="#263238"/>
<path opacity="0.2" d="M134.092 145.796C143.474 145.796 151.079 134.11 151.079 119.693C151.079 105.277 143.474 93.5906 134.092 93.5906C124.71 93.5906 117.104 105.277 117.104 119.693C117.104 134.11 124.71 145.796 134.092 145.796Z" fill="white"/>
<path d="M135.562 105.585C130.493 105.585 126.379 111.905 126.379 119.694C126.379 127.483 130.493 133.802 135.562 133.802C140.631 133.802 144.738 127.483 144.738 119.694C144.738 111.905 140.631 105.585 135.562 105.585Z" fill="white"/>
<path d="M225.721 91.5979H215.605C204.376 91.5979 195.276 104.176 195.276 119.693C195.276 135.211 204.369 147.789 215.605 147.789H225.706C236.935 147.789 246.035 135.211 246.035 119.693C246.035 104.176 236.95 91.5979 225.721 91.5979Z" fill="#263238"/>
<path opacity="0.2" d="M228.902 145.796C238.284 145.796 245.89 134.11 245.89 119.693C245.89 105.277 238.284 93.5906 228.902 93.5906C219.52 93.5906 211.914 105.277 211.914 119.693C211.914 134.11 219.52 145.796 228.902 145.796Z" fill="white"/>
<path d="M230.372 133.802C235.439 133.802 239.547 127.485 239.547 119.694C239.547 111.902 235.439 105.585 230.372 105.585C225.304 105.585 221.196 111.902 221.196 119.694C221.196 127.485 225.304 133.802 230.372 133.802Z" fill="white"/>
<path d="M18.9744 122.232L21.9142 108.025C22.0516 107.334 22.4256 106.712 22.9719 106.267C23.5181 105.822 24.2024 105.581 24.9072 105.585H45.9636C46.938 105.584 47.893 105.858 48.7188 106.375C49.5445 106.893 50.2073 107.633 50.631 108.51L57.2988 122.232H18.9744Z" fill="#006940"/>
<path opacity="0.7" d="M112.178 79.46L97.9107 88.4463L67.6027 94.9701H17.4431L4.20605 89.1737C4.44094 88.4994 4.69098 87.7947 4.96375 87.0522C5.73206 85.064 6.60204 83.1167 7.57024 81.2179C7.6157 81.127 7.66116 81.036 7.7142 80.9451C9.15639 78.1468 10.8966 75.5124 12.9044 73.0878C13.4879 72.3907 14.0864 71.7088 14.6926 71.042C20.8072 72.5574 22.853 79.46 22.853 79.46L23.9744 90.189L24.3002 93.3032H58.6846L60.8365 90.2042L68.3225 79.46C68.3225 79.46 78.6424 74.0046 87.3635 72.2922C94.3116 70.9283 107.556 70.7768 107.556 70.7768C111.42 72.2846 112.178 79.46 112.178 79.46Z" fill="white"/>
<path d="M92.3953 81.8997C92.0544 84.5971 90.0465 86.5596 87.9098 86.2944C85.7731 86.0292 84.3183 83.6121 84.6668 80.9147C85.0154 78.2173 87.0157 76.2473 89.1524 76.5201C91.2891 76.7928 92.7363 79.2023 92.3953 81.8997Z" fill="white"/>
<path d="M80.839 87.3675C82.5053 83.8136 81.5771 79.864 78.7658 78.5458C75.9544 77.2277 72.3245 79.0402 70.6582 82.5942C68.9919 86.1481 69.9202 90.0978 72.7315 91.4159C75.5429 92.734 79.1727 90.9215 80.839 87.3675Z" fill="white"/>
<path d="M22.0185 87.3668C23.6848 83.8128 22.7565 79.8632 19.9452 78.5451C17.1339 77.2269 13.504 79.0394 11.8377 82.5934C10.1714 86.1474 11.0996 90.097 13.911 91.4151C16.7223 92.7332 20.3521 90.9207 22.0185 87.3668Z" fill="white"/>
<path d="M14.8144 77.6487C13.9437 78.0058 13.157 78.5407 12.5046 79.2191C11.8523 79.8976 11.3487 80.7046 11.026 81.5887C10.6623 82.4944 10.4771 83.4618 10.4804 84.4377C10.3764 84.4373 10.2735 84.4167 10.1773 84.3771C8.98016 83.8921 8.82105 81.4675 9.82879 78.9292C10.8365 76.3909 12.6171 74.7467 13.8143 75.2241C14.4811 75.4968 14.8144 76.4288 14.8144 77.6487Z" fill="white"/>
<path d="M83.6974 104.843L85.4931 105.275C85.8427 105.359 86.1475 105.572 86.3458 105.871C86.5442 106.171 86.6213 106.535 86.5615 106.889L84.9779 116.451C84.9222 116.783 84.7507 117.083 84.494 117.3C84.2373 117.516 83.912 117.635 83.5762 117.633H69.3693C68.9928 117.633 68.6316 117.484 68.3647 117.219C68.0978 116.953 67.9468 116.593 67.9448 116.217V116.217C67.9443 115.884 68.0599 115.563 68.2716 115.307C68.4833 115.051 68.7778 114.877 69.1041 114.815C71.3772 114.39 76.7569 112.625 82.1971 105.389C82.3641 105.159 82.5963 104.984 82.8637 104.886C83.1311 104.789 83.4214 104.774 83.6974 104.843V104.843Z" fill="#263238"/>
<path d="M83.6963 104.843L72.3687 104.805L83.6963 107.684V104.843Z" fill="#263238"/>
<path d="M11.026 104.805L2.57007 105.563L6.79803 118.368H13.4203L11.9731 115.117C9.04595 113.417 6.76706 110.791 5.49479 107.654L11.026 104.805Z" fill="#263238"/>
<path opacity="0.7" d="M83.855 114.117C83.855 115.716 82.7942 117.011 81.4834 117.011C80.1726 117.011 79.1194 115.716 79.1194 114.117C79.1194 112.518 80.1802 111.222 81.4834 111.222C82.7867 111.222 83.855 112.518 83.855 114.117Z" fill="white"/>
<path opacity="0.7" d="M9.0933 114.185C9.52518 115.7 9.29788 117.132 8.58564 117.329C7.8734 117.526 6.94901 116.443 6.51712 114.897C6.08524 113.352 6.31254 111.95 7.02478 111.753C7.73702 111.556 8.66898 112.639 9.0933 114.185Z" fill="white"/>
<path opacity="0.7" d="M42.2345 83.764H36.4305C36.3184 83.7645 36.208 83.7915 36.1083 83.8427C36.0086 83.8939 35.9224 83.9679 35.8567 84.0588C35.7909 84.1496 35.7476 84.2546 35.7301 84.3654C35.7127 84.4761 35.7216 84.5894 35.7562 84.696L37.4458 89.962C37.4852 90.0859 37.5577 90.1967 37.6555 90.2824C37.7533 90.368 37.8727 90.4252 38.0007 90.4479C38.1287 90.4705 38.2605 90.4577 38.3817 90.4108C38.5029 90.3639 38.609 90.2847 38.6885 90.1817L42.7952 84.9158C42.8776 84.8106 42.9288 84.6844 42.943 84.5516C42.9571 84.4188 42.9336 84.2846 42.8751 84.1645C42.8166 84.0444 42.7255 83.9432 42.6123 83.8723C42.499 83.8015 42.3681 83.764 42.2345 83.764V83.764ZM40.4691 85.0294L38.4157 87.6662C38.3757 87.7176 38.3224 87.757 38.2615 87.7802C38.2007 87.8034 38.1346 87.8095 38.0706 87.7978C38.0065 87.7861 37.9469 87.757 37.8982 87.7138C37.8495 87.6705 37.8136 87.6148 37.7944 87.5525L36.9458 84.9233C36.9294 84.8695 36.9256 84.8126 36.9349 84.7572C36.9442 84.7017 36.9662 84.6491 36.9993 84.6035C37.0323 84.558 37.0755 84.5208 37.1254 84.4948C37.1753 84.4687 37.2305 84.4546 37.2867 84.4535H40.1887C40.2555 84.4535 40.321 84.4723 40.3776 84.5077C40.4342 84.5431 40.4798 84.5937 40.509 84.6538C40.5383 84.7138 40.55 84.7809 40.543 84.8473C40.5359 84.9138 40.5103 84.9768 40.4691 85.0294V85.0294Z" fill="white"/>
<path opacity="0.2" d="M112.178 79.46L97.9107 88.4463L67.6027 94.9701H17.4431L4.20605 89.1737C4.44094 88.4993 4.69098 87.7947 4.96375 87.0522C5.7666 84.9682 6.68224 82.9295 7.70663 80.9451V80.9451L6.67616 87.3022C6.58792 87.8443 6.68121 88.4004 6.94155 88.8841C7.20188 89.3678 7.61467 89.7519 8.11578 89.9769L15.6928 93.3638C16.2971 93.6371 16.9601 93.7554 17.6216 93.7077C18.2832 93.6601 18.9224 93.4481 19.4813 93.091L24.0275 90.1663L24.3533 93.2804H58.7377L60.8895 90.1814L65.6782 93.3941C66.076 93.6629 66.5238 93.8491 66.995 93.9415C67.4662 94.0339 67.9511 94.0307 68.4211 93.932L95.38 88.219C96.1978 88.0444 96.9553 87.6578 97.5764 87.0979C98.1975 86.538 98.6603 85.8245 98.9184 85.0291L100.487 79.9449C100.701 79.2483 100.697 78.5031 100.476 77.8086C100.256 77.1141 99.8284 76.5035 99.2518 76.0579L95.3724 73.0271C102.321 71.6633 107.579 70.754 107.579 70.754C111.42 72.2846 112.178 79.46 112.178 79.46Z" fill="black"/>
<path d="M24.0061 90.1896H25.4382L25.7185 92.4703H57.2994L58.8754 90.1896L60.8682 90.2047L58.7163 93.3037H24.3319L24.0061 90.1896Z" fill="#263238"/>
<path d="M22.7087 94.9701L24.0044 94.0457H58.8737L59.6693 94.9701H22.7087Z" fill="#263238"/>
<path opacity="0.2" d="M255.513 83.7635L251.581 80.8691C250.615 74.5818 249.317 68.3499 247.694 62.1994C245.375 53.554 243.314 49.1366 242.943 48.3714C242.927 48.3317 242.906 48.2936 242.883 48.2577L234.002 40.6807C230.585 28.3454 218.212 7.6602 211.711 5.27345H211.673C176.781 0.803022 162.423 6.19026 162.423 6.19026C144.154 28.4666 136.661 50.743 136.661 50.743C126.362 56.4541 116.639 63.1452 107.626 70.7235C108.383 77.7095 103.466 84.9455 103.466 84.9455L97.9499 88.4233L98.5333 96.4625C95.0858 107.366 89.6379 121.095 89.6379 121.095H104.413C104.58 101.463 116.218 85.6198 130.561 85.6198C144.905 85.6198 156.528 101.463 156.702 121.095H201.012C201.179 101.463 212.817 85.6198 227.16 85.6198C230.016 85.6266 232.836 86.2522 235.427 87.4535C245.156 91.9012 252.339 103.994 253.21 118.519C253.21 118.762 253.21 119.004 253.255 119.277C253.512 119.007 253.738 118.709 253.93 118.39C254.263 118.226 254.559 117.994 254.796 117.708C255.034 117.422 255.209 117.089 255.309 116.731C258.991 106.631 255.513 83.7635 255.513 83.7635ZM140.525 50.7657C146.844 26.6178 163.847 8.06935 163.847 8.06935C171.35 6.96024 178.918 6.34519 186.502 6.22814C187.078 10.6531 188.275 22.2762 188.548 44.6586C161.377 47.4167 140.525 50.7657 140.525 50.7657ZM218.992 42.1203L217.992 42.1885L216.113 42.3098L215.219 42.3704C207.24 42.9084 199.391 43.5827 191.958 44.3101C191.67 35.0207 190.973 17.7452 189.434 6.21299C197.158 6.15039 204.872 6.75629 212.491 8.02389L212.741 8.06935C212.743 8.08442 212.743 8.09974 212.741 8.11482C212.953 8.37244 213.166 8.625 213.378 8.87252L213.62 9.19075C224.599 23.2764 231.805 41.4157 231.805 41.4157C227.547 41.6278 223.251 41.84 218.992 42.1203V42.1203Z" fill="black"/>
<path d="M218.992 42.1277L217.992 42.1883C215.635 22.8973 213.68 12.926 212.491 8.02368L212.741 8.06914C212.743 8.08422 212.743 8.09954 212.741 8.11461C212.953 8.37223 213.165 8.645 213.377 8.87231C216.363 22.0032 218.098 34.6568 218.992 42.1277Z" fill="#263238"/>
<path d="M95.8271 121.118H102.745C104.223 121.122 105.659 120.627 106.82 119.712C107.981 118.798 108.798 117.517 109.14 116.08C110.936 108.503 116.194 94.5989 130.909 91.5984C146.411 88.4388 151.533 106.904 153.117 116.117C153.355 117.515 154.079 118.784 155.162 119.699C156.245 120.614 157.617 121.117 159.034 121.118H160.694C160.694 121.118 160.694 76.1261 128.264 79.657C105.382 82.1574 98.9186 116.246 98.9186 116.246L95.8271 121.118Z" fill="#006940"/>
<path opacity="0.2" d="M95.8271 121.118H102.745C104.223 121.122 105.659 120.627 106.82 119.712C107.981 118.798 108.798 117.517 109.14 116.08C110.936 108.503 116.194 94.5989 130.909 91.5984C146.411 88.4388 151.533 106.904 153.117 116.117C153.355 117.515 154.079 118.784 155.162 119.699C156.245 120.614 157.617 121.117 159.034 121.118H160.694C160.694 121.118 160.694 76.1261 128.264 79.657C105.382 82.1574 98.9186 116.246 98.9186 116.246L95.8271 121.118Z" fill="black"/>
<path d="M190.639 121.118H197.564C199.041 121.121 200.475 120.625 201.634 119.71C202.794 118.795 203.61 117.516 203.951 116.08C205.755 108.503 211.013 94.5989 225.72 91.5984C241.223 88.4388 246.352 106.904 247.936 116.117C248.171 117.517 248.894 118.787 249.978 119.703C251.062 120.618 252.435 121.12 253.854 121.118H255.513C255.513 121.118 255.513 76.1261 223.076 79.657C200.201 82.1574 193.73 116.246 193.73 116.246L190.639 121.118Z" fill="#006940"/>
<path opacity="0.2" d="M190.639 121.118H197.564C199.041 121.121 200.475 120.625 201.634 119.71C202.794 118.795 203.61 117.516 203.951 116.08C205.755 108.503 211.013 94.5989 225.72 91.5984C241.223 88.4388 246.352 106.904 247.936 116.117C248.171 117.517 248.894 118.787 249.978 119.703C251.062 120.618 252.435 121.12 253.854 121.118H255.513C255.513 121.118 255.513 76.1261 223.076 79.657C200.201 82.1574 193.73 116.246 193.73 116.246L190.639 121.118Z" fill="black"/>
<path opacity="0.2" d="M135 102.258C139.008 101.932 143.047 103.266 146.494 105.365C149.932 107.564 152.866 110.467 155.102 113.881C157.342 117.27 159.144 120.928 160.466 124.77C161.772 128.592 162.785 132.508 163.497 136.484L162.497 135.65L179.795 135.574L197.093 135.635L196.086 136.438C197.121 132.409 198.516 128.481 200.253 124.701C201.971 120.915 204.108 117.334 206.625 114.025C209.135 110.7 212.244 107.873 215.793 105.691C217.584 104.639 219.491 103.8 221.476 103.19C223.45 102.63 225.487 102.317 227.538 102.258C225.512 102.494 223.518 102.949 221.59 103.615C219.696 104.325 217.89 105.253 216.21 106.38C212.911 108.703 210.046 111.588 207.747 114.904C205.42 118.205 203.458 121.749 201.897 125.474C200.288 129.168 199.008 132.997 198.071 136.915L197.881 137.719H197.071L179.772 137.779L162.474 137.703H161.663L161.527 136.87C160.887 132.978 159.967 129.136 158.777 125.376C157.6 121.626 155.977 118.031 153.942 114.669C151.913 111.303 149.231 108.377 146.055 106.062C142.834 103.716 138.983 102.391 135 102.258Z" fill="black"/>
<path d="M98.4943 96.486C98.4943 96.486 119.808 76.6797 140.524 81.1805C140.524 81.1805 130.939 76.2706 112.178 79.4605L95.8271 90.1895L98.4943 96.486Z" fill="#006940"/>
<path d="M142.108 56.3647C142.108 56.3647 224.781 46.5828 242.882 48.2573L235.745 42.1957C235.745 42.1957 152.337 48.1588 142.108 56.3647Z" fill="#006940"/>
<path opacity="0.7" d="M247.693 62.1994C243.723 54.8194 239.556 52.7358 239.556 52.7358L234.858 45.9619C237.725 45.9939 240.526 46.8286 242.943 48.3714C243.314 49.1367 245.375 53.5541 247.693 62.1994Z" fill="white"/>
<path d="M165.391 52.8039C165.391 54.3193 149.873 56.8879 149.623 56.8879C149.373 56.8879 146.358 56.3651 146.358 56.3651L140.842 56.8879C140.673 56.7181 140.535 56.5208 140.433 56.3045C140.211 55.8436 140.08 55.3447 140.046 54.8346C140.038 54.673 140.038 54.5112 140.046 54.3496C140.064 53.1389 140.232 51.9351 140.546 50.7657C141.682 50.8683 142.827 50.7415 143.912 50.3926C144.998 50.0438 146.002 49.4801 146.865 48.7351C147.669 46.7499 148.76 44.5905 149.957 43.6585C149.957 43.6585 160.868 44.4162 163.148 45.7346C165.384 47.0606 165.391 52.8039 165.391 52.8039Z" fill="#263238"/>
<path d="M165.391 52.8039L164.8 52.2963C164.8 52.2963 147.797 55.7438 147.661 52.2963C147.524 48.8487 149.934 43.6585 149.934 43.6585C149.934 43.6585 160.913 44.4162 163.148 45.7498C165.383 47.0833 165.391 52.8039 165.391 52.8039Z" fill="#006940"/>
<path opacity="0.2" d="M165.391 52.8037C165.391 54.3191 149.874 56.8877 149.623 56.8877C149.373 56.8877 146.358 56.3649 146.358 56.3649L140.842 56.8877C140.673 56.7179 140.535 56.5206 140.433 56.3043C140.211 55.8433 140.08 55.3444 140.046 54.8343L146.358 53.6069L147.714 51.9172C152.275 51.8611 156.829 51.5372 161.353 50.9473C161.624 50.9069 161.871 50.7693 162.048 50.5602C162.225 50.3511 162.32 50.0847 162.315 49.8108C162.315 48.894 162.315 47.5377 162.315 46.9164C162.409 46.4407 162.68 46.0184 163.073 45.7344C165.384 47.0603 165.391 52.8037 165.391 52.8037Z" fill="black"/>
</svg>
